<mxfile host="Electron" modified="2024-03-18T15:42:06.777Z" agent="Mozilla/5.0 (Macintosh; Intel Mac OS X 10_15_7) AppleWebKit/537.36 (KHTML, like Gecko) draw.io/24.0.4 Chrome/120.0.6099.109 Electron/28.1.0 Safari/537.36" etag="Icr-tnuLeibvpJLkpSS4" version="24.0.4" type="device">
  <diagram id="C5RBs43oDa-KdzZeNtuy" name="Page-1">
    <mxGraphModel dx="954" dy="727" grid="1" gridSize="10" guides="1" tooltips="1" connect="1" arrows="1" fold="1" page="1" pageScale="1" pageWidth="827" pageHeight="1169" math="0" shadow="0">
      <root>
        <mxCell id="WIyWlLk6GJQsqaUBKTNV-0" />
        <mxCell id="WIyWlLk6GJQsqaUBKTNV-1" parent="WIyWlLk6GJQsqaUBKTNV-0" />
        <mxCell id="Vii7Bnl0OTtIo5eGfqnA-2" style="edgeStyle=orthogonalEdgeStyle;rounded=0;orthogonalLoop=1;jettySize=auto;html=1;exitX=1;exitY=0.5;exitDx=0;exitDy=0;entryX=0;entryY=0.5;entryDx=0;entryDy=0;" edge="1" parent="WIyWlLk6GJQsqaUBKTNV-1" source="Vii7Bnl0OTtIo5eGfqnA-0" target="Vii7Bnl0OTtIo5eGfqnA-1">
          <mxGeometry relative="1" as="geometry" />
        </mxCell>
        <mxCell id="Vii7Bnl0OTtIo5eGfqnA-0" value="Network" style="shape=parallelogram;perimeter=parallelogramPerimeter;whiteSpace=wrap;html=1;fixedSize=1;" vertex="1" parent="WIyWlLk6GJQsqaUBKTNV-1">
          <mxGeometry x="80" y="260" width="120" height="60" as="geometry" />
        </mxCell>
        <mxCell id="Vii7Bnl0OTtIo5eGfqnA-6" style="edgeStyle=orthogonalEdgeStyle;rounded=0;orthogonalLoop=1;jettySize=auto;html=1;entryX=0;entryY=0.5;entryDx=0;entryDy=0;" edge="1" parent="WIyWlLk6GJQsqaUBKTNV-1" source="Vii7Bnl0OTtIo5eGfqnA-1" target="Vii7Bnl0OTtIo5eGfqnA-3">
          <mxGeometry relative="1" as="geometry" />
        </mxCell>
        <mxCell id="Vii7Bnl0OTtIo5eGfqnA-1" value="Tokenizer" style="rounded=0;whiteSpace=wrap;html=1;" vertex="1" parent="WIyWlLk6GJQsqaUBKTNV-1">
          <mxGeometry x="270" y="260" width="120" height="60" as="geometry" />
        </mxCell>
        <mxCell id="Vii7Bnl0OTtIo5eGfqnA-12" style="edgeStyle=orthogonalEdgeStyle;rounded=0;orthogonalLoop=1;jettySize=auto;html=1;exitX=0.5;exitY=1;exitDx=0;exitDy=0;" edge="1" parent="WIyWlLk6GJQsqaUBKTNV-1" source="Vii7Bnl0OTtIo5eGfqnA-3" target="Vii7Bnl0OTtIo5eGfqnA-5">
          <mxGeometry relative="1" as="geometry" />
        </mxCell>
        <mxCell id="Vii7Bnl0OTtIo5eGfqnA-14" style="edgeStyle=orthogonalEdgeStyle;rounded=0;orthogonalLoop=1;jettySize=auto;html=1;entryX=0.5;entryY=0;entryDx=0;entryDy=0;" edge="1" parent="WIyWlLk6GJQsqaUBKTNV-1" source="Vii7Bnl0OTtIo5eGfqnA-3" target="Vii7Bnl0OTtIo5eGfqnA-4">
          <mxGeometry relative="1" as="geometry" />
        </mxCell>
        <mxCell id="Vii7Bnl0OTtIo5eGfqnA-3" value="Tree Construction" style="rounded=0;whiteSpace=wrap;html=1;" vertex="1" parent="WIyWlLk6GJQsqaUBKTNV-1">
          <mxGeometry x="460" y="260" width="120" height="60" as="geometry" />
        </mxCell>
        <mxCell id="Vii7Bnl0OTtIo5eGfqnA-4" value="DOM" style="shape=document;whiteSpace=wrap;html=1;boundedLbl=1;" vertex="1" parent="WIyWlLk6GJQsqaUBKTNV-1">
          <mxGeometry x="650" y="310" width="120" height="80" as="geometry" />
        </mxCell>
        <mxCell id="Vii7Bnl0OTtIo5eGfqnA-9" style="edgeStyle=orthogonalEdgeStyle;rounded=0;orthogonalLoop=1;jettySize=auto;html=1;entryX=0.5;entryY=1;entryDx=0;entryDy=0;" edge="1" parent="WIyWlLk6GJQsqaUBKTNV-1" source="Vii7Bnl0OTtIo5eGfqnA-5" target="Vii7Bnl0OTtIo5eGfqnA-1">
          <mxGeometry relative="1" as="geometry" />
        </mxCell>
        <mxCell id="Vii7Bnl0OTtIo5eGfqnA-13" value="document.write()" style="edgeLabel;html=1;align=center;verticalAlign=middle;resizable=0;points=[];" vertex="1" connectable="0" parent="Vii7Bnl0OTtIo5eGfqnA-9">
          <mxGeometry x="-0.1455" y="-1" relative="1" as="geometry">
            <mxPoint x="14" y="-9" as="offset" />
          </mxGeometry>
        </mxCell>
        <mxCell id="Vii7Bnl0OTtIo5eGfqnA-5" value="Script Execution" style="rounded=0;whiteSpace=wrap;html=1;" vertex="1" parent="WIyWlLk6GJQsqaUBKTNV-1">
          <mxGeometry x="460" y="380" width="120" height="60" as="geometry" />
        </mxCell>
        <mxCell id="Vii7Bnl0OTtIo5eGfqnA-11" value="" style="endArrow=none;dashed=1;html=1;dashPattern=1 3;strokeWidth=2;rounded=0;entryX=0.533;entryY=0.863;entryDx=0;entryDy=0;entryPerimeter=0;exitX=1;exitY=0.5;exitDx=0;exitDy=0;" edge="1" parent="WIyWlLk6GJQsqaUBKTNV-1" source="Vii7Bnl0OTtIo5eGfqnA-5" target="Vii7Bnl0OTtIo5eGfqnA-4">
          <mxGeometry width="50" height="50" relative="1" as="geometry">
            <mxPoint x="630" y="490" as="sourcePoint" />
            <mxPoint x="680" y="440" as="targetPoint" />
            <Array as="points">
              <mxPoint x="714" y="410" />
            </Array>
          </mxGeometry>
        </mxCell>
      </root>
    </mxGraphModel>
  </diagram>
</mxfile>
